<svg width="195" height="197" viewBox="0 0 195 197" fill="none" xmlns="http://www.w3.org/2000/svg">
<mask id="mask0_102_109" style="mask-type:luminance" maskUnits="userSpaceOnUse" x="0" y="0" width="195" height="197">
<path d="M194.646 0.251038H0V196.933H194.646V0.251038Z" fill="white"/>
</mask>
<g mask="url(#mask0_102_109)">
<path d="M166.038 167.977C184.392 149.553 194.682 124.597 194.646 98.5913C194.626 96.9862 193.976 95.4533 192.834 94.3253C191.691 93.1965 190.151 92.5644 188.546 92.5644C186.94 92.5644 185.4 93.1965 184.258 94.3253C183.116 95.4533 182.465 96.9862 182.445 98.5913C182.471 121.381 173.45 143.251 157.363 159.394C149.554 167.412 140.218 173.784 129.906 178.135C119.594 182.486 108.515 184.728 97.3231 184.728C86.1309 184.728 75.052 182.486 64.7402 178.135C54.4283 173.784 45.0924 167.412 37.2831 159.394C21.2181 143.235 12.2009 121.374 12.2009 98.5878C12.2009 75.8008 21.2181 53.9402 37.2831 37.7804C45.0469 29.8246 54.3128 23.4892 64.5435 19.1414C74.7743 14.7936 85.7663 12.52 96.8824 12.4523C99.2558 12.5267 101.506 13.5254 103.154 15.2355C104.802 16.9454 105.716 19.2315 105.702 21.6062C105.689 23.9808 104.748 26.256 103.08 27.9468C101.413 29.6376 99.1507 30.61 96.7765 30.6567C96.5566 30.6572 96.3367 30.6694 96.1186 30.6932C79.2066 31.2379 63.1598 38.2994 51.3336 50.4012C38.8443 62.9738 31.8347 79.976 31.8347 97.6975C31.8347 115.419 38.8443 132.421 51.3336 144.994C57.4351 151.244 64.725 156.211 72.7744 159.602C80.8237 162.993 89.4703 164.739 98.2044 164.739C106.938 164.739 115.585 162.993 123.635 159.602C131.683 156.211 138.974 151.244 145.075 144.994C157.584 132.434 164.596 115.424 164.571 97.6975C164.597 94.9058 164.069 92.1353 163.019 89.5483C161.967 86.9618 160.415 84.6085 158.449 82.6251C156.484 80.6415 154.145 79.0671 151.568 77.9927C148.99 76.9181 146.226 76.365 143.434 76.365C140.641 76.365 137.877 76.9181 135.3 77.9927C132.722 79.0671 130.384 80.6415 128.418 82.6251C126.452 84.6085 124.9 86.9618 123.848 89.5483C122.798 92.1353 122.27 94.9058 122.296 97.6975C122.296 97.8756 122.307 98.0429 122.322 98.2139C122.307 98.3848 122.296 98.5557 122.296 98.7302C122.336 103.598 120.929 108.368 118.252 112.435C115.577 116.502 111.754 119.682 107.268 121.573C102.782 123.463 97.835 123.978 93.0562 123.053C88.2766 122.127 83.8799 119.804 80.4236 116.376C76.9673 112.947 74.6072 108.57 73.6428 103.798C72.6784 99.0266 73.1532 94.0761 75.0068 89.575C76.8604 85.0733 80.0095 81.224 84.0542 78.5152C88.0991 75.8064 92.8577 74.3602 97.7255 74.3601C98.5329 74.3699 99.3341 74.2192 100.083 73.9171C100.831 73.6148 101.513 73.1671 102.087 72.5996C102.661 72.0322 103.118 71.3564 103.428 70.6114C103.74 69.8664 103.9 69.0671 103.9 68.2597C103.9 67.4524 103.74 66.653 103.428 65.9081C103.118 65.1631 102.661 64.4873 102.087 63.9198C101.513 63.3524 100.831 62.9046 100.083 62.6024C99.3341 62.3002 98.5329 62.1496 97.7255 62.1594C90.5012 62.1995 83.4503 64.3785 77.4629 68.4213C71.4754 72.4642 66.8195 78.1899 64.0826 84.876C61.3457 91.562 60.6505 98.9091 62.0844 105.99C63.5185 113.071 67.0176 119.568 72.1403 124.663C77.263 129.757 83.7799 133.22 90.8689 134.615C97.9569 136.009 105.3 135.272 111.971 132.499C118.642 129.725 124.342 125.037 128.351 119.028C132.361 113.018 134.5 105.954 134.5 98.7302C134.5 98.5522 134.489 98.3848 134.474 98.2139C134.489 98.0429 134.5 97.872 134.5 97.6975C134.476 96.5091 134.69 95.3277 135.129 94.2221C135.567 93.1173 136.222 92.1104 137.053 91.262C137.886 90.4127 138.879 89.7379 139.975 89.2777C141.071 88.8174 142.249 88.5803 143.437 88.5803C144.626 88.5803 145.803 88.8174 146.899 89.2777C147.995 89.7379 148.989 90.4127 149.821 91.262C150.653 92.1104 151.308 93.1173 151.746 94.2221C152.185 95.3277 152.398 96.5091 152.374 97.6975C152.39 112.21 146.646 126.135 136.402 136.415C131.435 141.517 125.496 145.572 118.936 148.342C112.376 151.112 105.327 152.538 98.2062 152.538C91.0861 152.538 84.0375 151.112 77.4773 148.342C70.9172 145.572 64.9784 141.517 60.0116 136.415C49.7815 126.126 44.0392 112.207 44.0392 97.6975C44.0392 83.1885 49.7815 69.2691 60.0116 58.9804C64.9823 53.8842 70.9212 49.8327 77.4797 47.064C84.0381 44.2952 91.0834 42.865 98.2026 42.8574C98.7501 42.8558 99.2949 42.7804 99.8229 42.633C105.016 41.8365 109.732 39.1506 113.067 35.0906C116.402 31.0305 118.12 25.8822 117.892 20.6333C117.664 15.3843 115.505 10.4043 111.831 6.64871C108.157 2.89304 103.226 0.626121 97.9836 0.282838C97.7646 0.258984 97.5439 0.2468 97.3231 0.246338C97.2002 0.246338 97.0783 0.246338 96.9554 0.246338C96.8949 0.246338 96.8361 0.246338 96.7774 0.246338C96.7186 0.246338 96.6581 0.253455 96.5993 0.255235C83.9171 0.354973 71.38 2.96413 59.7109 7.93227C48.0417 12.9004 37.4715 20.1293 28.6095 29.2021C10.2858 47.6458 0.00177002 72.5888 0.00177002 98.5878C0.00177002 124.586 10.2858 149.529 28.6095 167.973C37.5534 177.138 48.2404 184.421 60.0413 189.393C71.8424 194.366 84.5189 196.928 97.3249 196.928C110.131 196.928 122.807 194.366 134.609 189.393C146.41 184.421 157.096 177.138 166.04 167.973L166.038 167.977Z" fill="url(#paint0_linear_102_109)"/>
</g>
<defs>
<linearGradient id="paint0_linear_102_109" x1="0.00177002" y1="0.246363" x2="0.00177002" y2="196.928" gradientUnits="userSpaceOnUse">
<stop stop-color="#C37EF9"/>
<stop offset="1" stop-color="#19092B"/>
</linearGradient>
</defs>
</svg>
